<svg xmlns="http://www.w3.org/2000/svg">
    <symbol id="aries" viewBox="0 0 512 512"><path d="M376.818 71.805L353.88 58.448C208.577-14.768 35.111 90.774 35.111 254.967c0 121.463 98.463 219.926 219.927 219.926 121.46 0 219.924-98.464 219.924-219.926.001-76.426-38.981-143.747-98.144-183.162z" fill="#e5955e"></path><path d="M167.174 151.241c-6.428 0-13.055.685-19.706 2.04-55.886 11.371-81.088 72.951-70.511 121.05 1.206 5.489 9.141 5.314 10.107-.223 4.155-23.885 15.12-54.729 43.755-66.027 22.979-9.065 45.327-4.03 61.884 13.072 2.16 2.24 5.618 2 7.542-.146 12.779-14.287 27.796-20.912 38.147-23.95 3.501-1.035 4.847-5.293 2.582-8.144-8.986-11.328-34.162-37.672-73.8-37.672z" fill="#bf723d"></path><path d="M279.799 469.5c-120.335 0-217.881-97.551-217.881-217.883 0-116.052 88.856-205.299 194.574-216.811-115.567-.537-221.38 91.923-221.38 220.163 0 121.463 98.463 219.926 219.927 219.926 20.638 0 40.609-2.85 59.549-8.165a219.666 219.666 0 0 1-34.789 2.77z" fill="#d1814a"></path><path d="M255.993.005C114.612.005 0 114.619 0 256s114.612 255.995 255.993 255.995c141.102 0 255.993-114.343 255.993-255.995C511.987 114.619 397.377.005 255.993.005zm0 473.879c-120.334 0-217.88-97.551-217.88-217.883 0-120.334 97.546-217.881 217.88-217.881 119.713 0 217.88 96.963 217.88 217.881.002 120.331-97.548 217.883-217.88 217.883z" fill="#f9b546"></path><path d="M426.645 203.963c-30.607-64.753-112.068-69.99-155.632-15.051-2.266 2.854-.922 7.111 2.585 8.144 10.35 3.037 25.368 9.662 38.146 23.95 1.948 2.182 5.414 2.348 7.541.146 16.548-17.091 38.89-22.142 61.883-13.072 28.633 11.297 39.598 42.141 43.756 66.027a5.148 5.148 0 0 0 4.96 4.267c.039.002.077.002.115.002a5.147 5.147 0 0 0 5.028-4.046c5.024-22.823 1.965-48.475-8.382-70.367z" fill="#c97d49"></path><g fill="#aa6739"><path d="M371.572 188.332c-25.882-9.835-51.841-4.962-71.442 14.543-2.381 2.384-6.271 2.289-8.569-.033v1.862c6.703 3.831 13.729 9.086 20.182 16.302 1.948 2.182 5.414 2.348 7.541.146 16.548-17.091 38.89-22.142 61.883-13.072 23.157 9.135 34.755 31.058 40.543 51.741-5.06-26.273-17.89-59.229-50.138-71.489zM139.994 188.332c25.77-9.793 51.761-5.044 71.443 14.543 2.392 2.391 6.281 2.282 8.567-.033v1.862c-6.703 3.831-13.728 9.086-20.179 16.302-1.959 2.187-5.417 2.343-7.542.146-16.505-17.048-38.835-22.163-61.884-13.072-23.157 9.135-34.754 31.058-40.545 51.741 5.063-26.273 17.893-59.229 50.14-71.489z"></path></g><path d="M383.272 241.387c-15.238-21.556-37.059-21.818-56.318-7.683-12.228-23.975-30.302-35.561-43.557-41.082-14.946-6.229-26.903-6.299-27.404-6.299-.502 0-12.458.07-27.404 6.299-13.254 5.522-31.326 17.107-43.556 41.082-19.179-14.076-41.004-13.98-56.321 7.683a2.59 2.59 0 0 0-.225 2.59c8.684 18.299 30.326 34.801 50.672 34.201 1.031 28.98 42.929 41.884 33.004 78.871-3.544 13.202-2.379 23.756 3.461 31.369 11.558 15.067 37.295 12.962 40.369 12.656 13.532 1.356 31.714-1.372 40.368-12.655 5.84-7.614 7.005-18.168 3.464-31.371-9.926-36.985 31.969-49.893 33.005-78.871 20.559.597 42.175-16.196 50.667-34.201.4-.842.314-1.83-.225-2.589z" fill="#f9b546"></path><path d="M267.28 401.154c-26.446-1.91-39.745-16.934-32.453-44.105 6.743-25.13-10.308-38.868-22.675-54.916-28.659-38.395 12.072-91.379 12.072-91.379 11.996-12.005 27.013-19.814 43.101-23.062-3.694-.747-7.415-1.177-8.796-1.249-11.884-.989-30.842 4.431-45.809 14.938l-.008-.006c-9.76 6.853-19.902 17.083-27.679 32.331-19.179-14.076-41.004-13.98-56.321 7.683a2.59 2.59 0 0 0-.225 2.59c8.684 18.299 30.326 34.801 50.672 34.201 1.03 28.95 42.93 41.934 33.004 78.871-3.544 13.202-2.379 23.756 3.461 31.369 11.558 15.067 37.295 12.962 40.369 12.656 2.897.288 7.151.373 11.287.078z" fill="#e29729"></path><path d="M255.993 401.073c1.908.191 4.674.312 7.725.248v-38.54a7.724 7.724 0 0 0-7.725-7.726 7.725 7.725 0 0 0-7.727 7.726v38.54c3.919.087 6.818-.155 7.727-.248z" fill="#eaa23b"></path><g fill="#7a746f"><path d="M302.977 267.416a2.575 2.575 0 0 0-1.934-2.379c-13.632-3.513-29.049 9.254-28.441 23.111a2.585 2.585 0 0 0 1.933 2.381c1.462.373 3.015.563 4.619.563h.002c5.198 0 10.5-1.978 14.924-5.57 5.781-4.697 9.19-11.633 8.897-18.106zM210.973 265.038c-7.644 1.956 5.293 30.92 26.51 25.492a2.58 2.58 0 0 0 1.93-2.381c.62-13.882-14.836-26.618-28.44-23.111z"></path></g><path d="M263.718 187.05c-6.073-.939-9.281-.953-15.451 0v52.535a7.725 7.725 0 0 0 7.727 7.728 7.724 7.724 0 0 0 7.725-7.728V187.05h-.001z" fill="#eaa23b"></path><path d="M272.571 346.205c0 9.156-7.422 16.577-16.577 16.577-9.154 0-16.578-7.421-16.578-16.577 0-9.156 7.424-7.976 16.578-7.976 9.155 0 16.577-1.181 16.577 7.976z" fill="#d18146"></path></symbol>

    <symbol id="taurus" viewBox="0 0 512 512"><path d="M375.806 72.086l-23.048-13.423c-145.98-73.565-320.29 32.475-320.29 197.458 0 122.041 98.935 220.976 220.978 220.976 122.039 0 220.974-98.935 220.974-220.976.001-76.79-39.164-144.431-98.614-184.035z" fill="#f2cd83"></path><path d="M195.741 209.89c-18.953-3.129-23.498-5.418-46.302-13.538-25.191-11.592-38.469-27.511-39.467-47.317-.217-4.281-6.033-5.406-7.845-1.548-4.855 10.325-9.677 26.239-5.091 43.438 6.037 22.642 26.373 41.352 60.455 55.608a4.112 4.112 0 0 0 3.336-.068c12.877-6.024 17.693-2.389 19.288-7.081 3.016-8.867 8.826-16.279 17.27-22.019 3.069-2.087 2.019-6.875-1.644-7.475z" fill="#605a55"></path><path d="M278.777 469.504c-120.334 0-217.887-97.553-217.887-217.887 0-116.193 89.076-205.52 194.966-216.858-115.52.275-220.92 92.919-220.92 221.209 0 122.041 98.935 220.976 220.978 220.976 28.492 0 55.723-5.396 80.732-15.216-18.428 5.065-37.832 7.776-57.869 7.776z" fill="#ddad58"></path><path d="M410.875 147.52a4.113 4.113 0 0 0-4.526-2.293 4.118 4.118 0 0 0-3.318 3.841c-1.852 37.668-49.097 54.865-85.75 60.835-3.664.59-4.726 5.387-1.657 7.474 8.434 5.742 14.237 13.146 17.246 22.007 1.592 4.68 6.532 1.111 19.294 7.081a4.116 4.116 0 0 0 3.338.068c34.076-14.256 54.416-32.966 60.451-55.608 4.58-17.184-.233-33.088-5.078-43.405z" fill="#605a55"></path><g fill="#7a746f"><path d="M407.444 145.17a4.102 4.102 0 0 0-4.415 3.898c-1.852 37.668-49.097 54.865-85.75 60.835-3.664.59-4.726 5.387-1.657 7.474 6.616 4.501 11.604 10.032 14.905 16.482 46.495-13.98 83.514-41.273 76.917-88.689zM105.564 145.17a4.101 4.101 0 0 1 4.417 3.898c1.844 37.665 49.098 54.866 85.752 60.835 3.663.589 4.724 5.387 1.655 7.474-6.616 4.501-11.604 10.032-14.906 16.482-46.38-13.947-83.5-41.177-76.918-88.689z"></path></g><path d="M256.001.001C114.615.001 0 114.616 0 256s114.615 255.999 256.001 255.999C397.036 511.999 512 397.719 512 256 512 114.616 397.385.001 256.001.001zm0 473.886c-120.336 0-217.885-97.553-217.885-217.887 0-120.336 97.549-217.885 217.885-217.885 119.715 0 217.885 96.964 217.885 217.885.001 120.334-97.551 217.887-217.885 217.887z" fill="#d18146"></path><path d="M256.493 405.589s-25.795 3.987-40.368-6.839c5.568 16.975 21.533 29.665 40.368 29.665 18.837 0 34.803-12.691 40.37-29.665-14.572 10.826-40.37 6.839-40.37 6.839z" fill="#c45a41"></path><path d="M368.824 252.908c-10.634-13.437-26.895-15.958-32.434-16.433-10.123-30.518-49.839-40.152-79.897-38.908-30.06-1.259-69.765 8.364-79.895 38.908-5.537.475-21.8 2.996-32.436 16.433-9.43 11.914-11.768 29.016-6.944 50.826a2.582 2.582 0 0 0 1.872 1.939c6.558 1.696 23.274 1.869 37.279-12.513 10.437 21.145 37.292 42.443 29.608 70.359-3.73 13.532-2.619 24.331 3.293 32.09 9.876 12.963 31.932 14.704 47.221 12.579 13.812 1.914 36.885.994 47.227-12.579 5.908-7.759 7.019-18.558 3.291-32.09-7.689-27.923 19.18-49.223 29.606-70.359 11.874 12.192 27.546 15.032 37.281 12.513a2.575 2.575 0 0 0 1.872-1.939c4.828-21.81 2.489-38.911-6.944-50.826z" fill="#e28160"></path><g fill="#ce6e5b"><path d="M256.493 374.704a7.725 7.725 0 0 0-7.724 7.728v26.387c3.878-.143 6.718-.49 7.724-.631 1.007.141 3.849.488 7.728.631v-26.387a7.728 7.728 0 0 0-7.728-7.728zM248.77 197.587v32.612a7.725 7.725 0 0 0 7.724 7.728 7.728 7.728 0 0 0 7.728-7.728v-32.612c-2.754-.094-11.607-.132-15.452 0z"></path></g><g fill="#7a746f"><ellipse transform="scale(-1) rotate(-28.582 -1137.681 849.297)" cx="216.334" cy="289.791" rx="8.504" ry="13.265"></ellipse><path d="M302.992 278.125c-4.124-2.246-10.306 1.148-13.812 7.583-3.506 6.432-3.004 13.466 1.122 15.714 4.124 2.25 10.308-1.148 13.81-7.579 3.506-6.435 3.004-13.468-1.12-15.718z"></path></g><path d="M311.502 253.363c-.266-4.259-3.927-7.474-8.195-7.23-16.784 1.065-36.234 6.677-46.773 18.35-10.723-11.913-32.165-17.425-46.853-18.35a7.726 7.726 0 0 0-.965 15.422c.4.025 40.054 3.059 40.054 22.836v47.789a7.725 7.725 0 0 0 7.724 7.728 7.728 7.728 0 0 0 7.728-7.728v-47.79c0-19.685 39.66-22.811 40.062-22.836 4.253-.267 7.484-3.936 7.218-8.191z" fill="#ce6e5b"></path><path d="M274.23 364.697c0 9.794-7.941 17.735-17.737 17.735-9.794 0-17.733-7.941-17.733-17.735 0-9.796 7.939-6.406 17.733-6.406 9.796 0 17.737-3.389 17.737 6.406z" fill="#7a746f"></path><path d="M228.594 363.52c7.688-27.918-19.158-49.205-29.606-70.359 0 0-39.353-71.17 27.154-92.982-19.386 3.923-41.963 13.448-49.542 36.296-5.537.475-21.8 2.996-32.436 16.433-9.43 11.914-11.768 29.016-6.944 50.826a2.582 2.582 0 0 0 1.872 1.939c6.558 1.696 23.274 1.869 37.279-12.513 1.755 3.555 3.985 7.116 6.445 10.734 5.197 10.133 30.474 33.065 23.162 59.625-3.73 13.532-2.619 24.331 3.293 32.09 9.876 12.963 31.932 14.704 47.221 12.579 3.894.539 9.263.748 11.313.69-30.829-.062-47.552-15.057-39.211-45.358z" fill="#d36c50"></path></symbol>

    <symbol id="gemini" viewBox="0 0 512 512"><path d="M480.706 241.83C473.179 120.59 371.171 28.646 252.503 30.917 124.479 33.021 21.829 142.283 32.077 273.703 41.979 402.681 159.58 496.921 287.753 478.67c113.912-15.963 200.269-117.167 192.953-236.84z" fill="#f2cd83"></path><path d="M404.671 292.716c-.371-10.985-15.32-25.175-32.626-5.016 10.186-34.011-11.365-50.109-40.421-47.391-35.865 3.378-35.538-5.266-35.538 3.708-.739.747-.539-1.11.937 34.795.012.236.797 23.975-34.656 37.883-1.496.592-1.204 2.803.4 2.978.12.012 12.021 1.366 16.67 9.029 2.483 4.099 2.485 9.371.01 15.682a1.545 1.545 0 0 0 1.074 2.066l7.547 1.826c-2.364 5.03-3.236 6.051-1.885 7.01l5.782 4.09c3.404 10.824 7.677 18.177 13.008 22.427 12.125 10.557 28.584 9.776 27.036 9.776 22.36 0 40.724-20.891 49.335-41.326.8-.285 1.417-.382 1.724-1.182 4.705-12.333 5.254-23.246 5.317-26.024 2.808-2.812 16.726-17.434 16.286-30.331z" fill="#f9ddbb"></path><path d="M326.118 240.731c-30.729 1.905-30.032-5.008-30.032 3.284-.739.747-.539-1.11.937 34.795.012.236.797 23.975-34.656 37.883-1.496.592-1.204 2.803.4 2.978.12.012 12.021 1.366 16.67 9.029 2.483 4.099 2.485 9.371.01 15.682a1.545 1.545 0 0 0 1.074 2.066l7.547 1.826c-2.364 5.03-3.236 6.051-1.885 7.01l5.782 4.09c3.404 10.824 7.677 18.177 13.008 22.427 5.983 5.21 17.177 10.166 28.543 9.723-35.606-43.086-38.564-104.557-7.398-150.793z" fill="#eabe92"></path><path d="M255.106 279.789c-35.314-13.855-34.699-36.914-34.656-37.9 1.477-35.904 1.674-34.027.939-34.777 0-2.307.247-3.21-.542-3.886a1.555 1.555 0 0 0-1.239-.356c-18.088 2.754-33.121.241-39.864.241-26.319 0-43.664 16.458-34.318 47.681-17.269-20.109-32.237-6.025-32.625 5.02-.44 12.897 13.479 27.516 16.286 30.331.12 5.481 2.913 25.756 7.037 27.203 8.589 20.377 26.93 41.328 49.342 41.328 15.521 0 26.569-9.376 26.987-9.737 5.376-4.285 9.65-11.64 13.054-22.466l5.783-4.089c1.348-.958.484-1.965-1.884-7.012l7.544-1.823a1.548 1.548 0 0 0 1.075-2.068c-2.479-6.31-2.475-11.582.01-15.681 4.649-7.664 16.55-9.018 16.667-9.029a1.547 1.547 0 1 0 .404-2.98z" fill="#f9ddbb"></path><path d="M186.001 203.417c-33.497-2.577-49.772 16.649-40.575 47.375-17.269-20.109-32.237-6.025-32.625 5.02-.44 12.897 13.479 27.516 16.286 30.331.12 5.481 2.913 25.756 7.037 27.203 9.575 22.716 30.567 44.793 55.439 40.841-34.796-43.469-37.131-104.785-5.562-150.77z" fill="#e8c59e"></path><path d="M356.978 457.091c-23.519 8.687-48.945 13.441-75.484 13.441-120.338 0-217.886-97.551-217.886-217.887 0-131.933 114.911-229.294 238.842-217.042a222.87 222.87 0 0 0-49.947-4.686C124.479 33.021 21.829 142.283 32.077 273.703 41.979 402.68 159.58 496.921 287.753 478.67a223.293 223.293 0 0 0 69.225-21.579z" fill="#dbb165"></path><path d="M256.001 0C114.616 0 0 114.613 0 255.999 0 397.383 114.616 512 256.001 512 397.216 512 512 397.551 512 255.999 512 114.613 397.386 0 256.001 0zm0 473.886c-120.338 0-217.887-97.55-217.887-217.886 0-120.334 97.549-217.886 217.887-217.886 119.718 0 217.885 96.967 217.885 217.886.001 120.335-97.551 217.886-217.885 217.886z" fill="#ba8538"></path><path d="M415.828 203.158c-14.859-23.783-45.37-39.106-78.025-39.106-32.261 0-57.198 15.482-65.079 40.398-7.657 24.214.766 36.153 23.526 39.03 1.222.786 16.487 2.75 35.758.933 29.044-2.701 49.93 14.079 31.597 53.799a2.575 2.575 0 0 0 1.2 3.388 2.575 2.575 0 0 0 3.419-1.107c2.765-5.256 11.938-18.891 21.063-18.891 2.453 0 4.767.942 7.082 2.887 10.694 8.971-1.655 26.58-11.31 36.053a2.59 2.59 0 0 0-.787 1.867c.001.12-.003 11.962-5.054 25.194-.781 2.041 1.19 4.064 3.243 3.355 74.105-25.395 82.112-126.698 33.367-147.8z" fill="#d39954"></path><path d="M318.917 243.478c-22.722-2.872-31.201-14.779-23.526-39.03 6.945-21.973 27.162-36.598 53.96-39.751-3.805-.422-7.66-.646-11.548-.646-32.261 0-57.198 15.482-65.079 40.398-7.657 24.214.766 36.153 23.526 39.03 1.248.802 15.112 2.436 31.555 1.275-1.057-.085-7.942-.661-8.888-1.276z" fill="#a56c21"></path><path d="M101.646 166.252c-48.669 21.04-40.801 122.384 33.368 147.799.393.138.839.153.856.139 1.942 0 3.184-2.072 2.275-3.78-4.941-13.118-4.944-24.789-4.944-24.905a2.58 2.58 0 0 0-.787-1.871c-.16-.154-15.909-15.463-15.494-27.681.115-3.369 1.485-6.107 4.184-8.372 2.315-1.942 4.634-2.886 7.082-2.886 9.127 0 18.3 13.635 21.063 18.888 1.555 2.946 6.008.722 4.619-2.275-17.656-38.264.93-56.654 31.597-53.801 18.524 1.741 34.366-.046 35.755-.934 22.716-2.87 31.203-14.779 23.531-39.03-17.568-55.533-111.57-51.772-143.105-1.291z" fill="#ba8538"></path><path d="M124.31 176.554c19.599-31.377 64.538-45.569 100.244-36.408-34.667-24.701-98.264-13.345-122.907 26.106-48.669 21.04-40.801 122.384 33.368 147.799.393.138.839.153.856.139.246 0 .483-.045.71-.113-54.113-35.437-55.718-118.68-12.271-137.523z" fill="#a56c21"></path></symbol>

    <symbol id="cancer" viewBox="0 0 512 512"><path d="M380.191 68.954l-23.3-13.567C209.318-18.979 33.108 88.209 33.108 254.995c0 123.373 100.012 223.385 223.383 223.385 123.374 0 223.389-100.011 223.389-223.385.001-77.626-39.594-146.003-99.689-186.041z" fill="#ffdccc"></path><path d="M280.341 472.204c-120.334 0-217.88-97.546-217.88-217.878 0-136.373 122.76-235.79 251.359-215.427C177.139 2.136 33.108 104.206 33.108 254.995c0 123.373 100.011 223.385 223.383 223.385 24.046 0 47.198-3.815 68.902-10.846a218.665 218.665 0 0 1-45.052 4.67z" fill="#eab8a4"></path><path d="M255.994.007C114.613.007 0 114.62 0 256c0 141.382 114.613 255.993 255.994 255.993 141.116 0 255.994-114.353 255.994-255.993C511.988 114.62 397.375.007 255.994.007zm0 473.874c-120.33 0-217.879-97.546-217.879-217.88 0-120.331 97.548-217.88 217.879-217.88 119.716 0 217.882 96.968 217.882 217.88.001 120.333-97.55 217.88-217.882 217.88z" fill="#e86b2d"></path><g fill="#cc5a27"><path d="M321.811 301.616a7.73 7.73 0 0 1 3.798-10.247l40.959-18.799 37.048-44.461a7.73 7.73 0 0 1 10.883-.989 7.732 7.732 0 0 1 .991 10.884c-41.563 49.875-38.643 46.855-40.885 47.88l-42.549 19.533a7.723 7.723 0 0 1-10.245-3.801zM387.04 368.023l-16.571-24.461-43.968-19.462a7.729 7.729 0 0 1-3.941-10.195 7.735 7.735 0 0 1 10.194-3.937l45.995 20.359c2.704 1.197 1.622.299 21.085 29.027a7.724 7.724 0 0 1-2.065 10.73 7.719 7.719 0 0 1-10.729-2.061zM350.242 405.117l-5.545-26.928-27.538-32.864a7.726 7.726 0 0 1 .961-10.884c3.27-2.742 8.14-2.311 10.885.96 31.2 37.231 29.889 35.122 30.435 37.757l5.938 28.843a7.724 7.724 0 0 1-6.01 9.125 7.721 7.721 0 0 1-9.126-6.009zM318.792 429.101c-5.18 0-8.905-5.015-7.394-9.978 9.253-30.426-9.081-49.145-9.866-49.926-3.012-2.998-3.051-7.884-.07-10.911 2.98-3.029 7.829-3.102 10.878-.135 1.062 1.034 25.91 25.792 13.841 65.467a7.728 7.728 0 0 1-7.389 5.483zM178.847 305.416c-46.304-21.256-43.717-19.756-45.26-21.606l-38.172-45.805a7.729 7.729 0 0 1 11.873-9.895l37.049 44.461 40.956 18.799a7.727 7.727 0 1 1-6.446 14.046zM113.135 370.085a7.724 7.724 0 0 1-2.063-10.728l17.814-26.296c1.708-2.525-.533-1.049 49.265-23.091a7.73 7.73 0 0 1 10.196 3.937 7.73 7.73 0 0 1-3.94 10.195l-43.969 19.462-16.573 24.461c-2.388 3.534-7.204 4.456-10.73 2.06zM151.535 411.127a7.725 7.725 0 0 1-6.008-9.125c6.475-31.445 5.912-30.25 7.582-32.246l28.79-34.355a7.727 7.727 0 0 1 11.844 9.924l-27.538 32.864-5.544 26.928a7.725 7.725 0 0 1-9.126 6.01zM184.724 423.619c-12.07-39.674 12.779-64.434 13.841-65.467a7.728 7.728 0 0 1 10.803 11.05c-.841.835-19.099 19.542-9.861 49.922a7.728 7.728 0 0 1-5.143 9.639c-4.029 1.24-8.387-1.022-9.64-5.144z"></path></g><g fill="#dd643e"><path d="M368.253 211.288c-4.053-.096-7.775-.586-11.208-1.388-1.168 20.898-26.025 38.193-44.773 47.513a76.402 76.402 0 0 1 12.263 17.575c18.395-9.567 54.211-32.641 53.771-67.071-2.978 1.392-6.31 2.551-10.053 3.371zM200.248 257.652c-5.684-2.793-14.769-7.743-23.37-14.481-13.927-10.915-21.261-22.081-21.888-33.272-3.432.802-7.153 1.292-11.206 1.388-3.742-.819-7.076-1.978-10.058-3.371-.438 34.787 36.124 57.979 54.341 67.362a76.588 76.588 0 0 1 12.181-17.626z"></path></g><g fill="#e86b2d"><circle cx="223.758" cy="215.242" r="13.573"></circle><circle cx="288.991" cy="215.242" r="13.573"></circle></g><path d="M375.406 119.139a2.842 2.842 0 0 0-.347-.168c-.163-.107-.236-.159-.435-.256-7.432-3.566-12.24-3.942-14.227-1.21-1.542 2.112-.834 5.367-.577 6.315.066.256.167.498.298.729 12.285 21.584-3.857 42.864-6.448 46.048-8.092-7.554-19.186-12.254-32.985-13.972a3.076 3.076 0 0 0-2.569.88 3.101 3.101 0 0 0-.882 2.57c.633 5.048 2.406 15.004 7.186 24.938 9.352 19.425 25.348 28.841 43.586 28.841.228 0 .454-.025.677-.074 30.693-6.892 34.436-35.897 34.574-37.087 4.217-32.341-12.817-49.151-27.851-57.554z" fill="#cc5a27"></path><path d="M339.683 161.587c-5.602-2.422-11.945-4.085-19-4.962a3.076 3.076 0 0 0-2.569.88 3.101 3.101 0 0 0-.882 2.57c.633 5.048 2.406 15.004 7.186 24.938 9.352 19.425 25.348 28.841 43.586 28.841 1.027 0 11.931-2.164 20.905-10.22-2.218.631-37.485 1.542-49.226-42.047z" fill="#b74b20"></path><path d="M191.358 156.625c-13.801 1.718-24.897 6.418-32.992 13.972-2.619-3.217-18.728-24.487-6.448-46.055.134-.232.234-.477.303-.732 2.563-9.671-6.298-9.72-15.055-4.968-15.299 8.377-32.643 25.21-28.395 57.776.146 1.23 3.891 30.272 34.582 37.164.223.049.448.074.677.074.029 0 .061 0 .09-.002 30.778-.883 47.083-24.783 50.686-53.78.253-2.018-1.479-3.71-3.448-3.449z" fill="#cc5a27"></path><path d="M148.897 131.5a35.041 35.041 0 0 1 3.022-6.96c.134-.232.234-.477.303-.732 2.563-9.671-6.298-9.72-15.055-4.968-15.299 8.377-32.643 25.21-28.395 57.776.146 1.23 3.891 30.272 34.582 37.164.223.049.448.074.677.074.029 0 .061 0 .09-.002a58.055 58.055 0 0 0 7.513-.693c-26.995-16.754-28.056-59.951-2.737-81.659z" fill="#b74b20"></path><path d="M332.718 309.4c0 42.163-34.181 76.343-76.342 76.343-42.167 0-76.345-34.181-76.345-76.343 0-42.165 34.179-76.345 76.345-76.345 42.161 0 76.342 34.182 76.342 76.345z" fill="#e86b2d"></path><path d="M202.04 309.4c0-38.425 28.391-70.206 65.338-75.544-46.37-6.706-87.349 29.274-87.349 75.544 0 46.278 40.99 82.247 87.349 75.542-36.947-5.334-65.338-37.117-65.338-75.542z" fill="#d85319"></path></symbol>

    <symbol id="leo" viewBox="0 0 512 512"><path d="M377.888 71.232L354.753 57.76C208.213-16.073 33.249 90.354 33.249 255.968c0 122.505 99.309 221.815 221.814 221.815 122.503 0 221.815-99.311 221.815-221.815.001-77.083-39.318-144.981-98.99-184.736z" fill="#f9b546"></path><path d="M281.371 469.499c-120.331 0-217.882-97.55-217.882-217.882 0-118.687 92.936-209.337 201.798-217.477-119.91-5.396-232.038 89.247-232.038 221.827 0 122.505 99.309 221.816 221.813 221.816 28.457 0 55.659-5.366 80.658-15.129-17.373 4.463-35.582 6.845-54.349 6.845z" fill="#ef9f2b"></path><path d="M342.767 123.503l9.619-2.75c5.363-1.535 6.097-8.847 1.161-11.422-16.24-8.477-33.407-12.779-51.029-12.795-25.088 0-43.335 8.871-46.525 10.53-25.522-13.267-63.282-15.618-97.556 2.265-4.925 2.569-4.205 9.891 1.165 11.422l9.619 2.746c-24.063 10.915-48.015 34.421-61.059 67.222-1.762 4.439 1.975 9.111 6.673 8.391l12.51-1.899c-2.38 11.537-16.594 88.005 11.543 144.456 2.106 4.222 7.999 4.624 10.656.701l9.412-13.943c16.491 42.813 49.778 87.019 92.46 110.96 1.667.926 2.738 1.64 4.575 1.64 7.085 0 67.679-37.031 97.03-112.605l9.42 13.948c2.635 3.904 8.536 3.535 10.654-.701 28.137-56.453 13.921-132.93 11.542-144.454 13.368 2.028 12.581 1.951 13.485 1.968a6.18 6.18 0 0 0 6.156-6.178c.004-3.624-18.325-49.889-61.511-69.502z" fill="#f77c46"></path><path d="M255.993 323.557s-27.656 11.971-39.531 1.153c3.918 18.239 20.122 31.916 39.53 31.916 19.405 0 35.613-13.677 39.527-31.914-11.873 10.816-39.526-1.155-39.526-1.155z" fill="#ddab62"></path><path d="M244.338 327.373c-9.005 2.241-21.048 3.559-27.875-2.664 5.092 23.707 30.022 37.829 53.131 29.563-12.184-4.348-21.657-14.38-25.256-26.899z" fill="#ce964d"></path><path d="M255.994.007C114.613.007 0 114.62 0 256s114.613 255.993 255.994 255.993c141.101 0 255.994-114.342 255.994-255.993C511.988 114.62 397.375.007 255.994.007zm0 473.875c-120.33 0-217.879-97.55-217.879-217.882 0-120.333 97.548-217.88 217.879-217.88 119.712 0 217.882 96.962 217.882 217.88.001 120.332-97.55 217.882-217.882 217.882z" fill="#e6692b"></path><path d="M338.214 197.364c-11.187-49.547-69.614-41.021-82.221-17.046-12.608-23.975-71.033-32.5-82.222 17.046-11.187 49.545 50.078 54.872 38.892 103.887-11.188 49.012 43.331 25.394 43.331 25.394s54.518 23.619 43.331-25.394c-11.19-49.015 50.078-54.343 38.889-103.887z" fill="#f2cd83"></path><path d="M235.327 301.251c11.188-49.015-50.078-54.343-38.891-103.887 4.735-20.967 17.93-31.533 32.532-34.929-21.478-4.72-48.029 3.19-55.197 34.929-11.187 49.545 50.078 54.872 38.892 103.887-7.686 33.674 15.644 33.063 30.999 29.384-7.677-3.168-12.448-11.364-8.335-29.384z" fill="#ddab62"></path><g fill="#7a746f"><path d="M276.646 226.471l15.657-16.997c5.054-5.483 14.248-1.277 13.356 6.156l-1.664 13.878a7.72 7.72 0 0 1-5.988 6.619l-13.995 3.121c-7.314 1.657-12.504-7.198-7.366-12.777zM227.976 239.249l-13.995-3.121a7.722 7.722 0 0 1-5.99-6.619l-1.666-13.878c-.888-7.438 8.305-11.636 13.355-6.156l15.66 16.997c5.147 5.595-.077 14.431-7.364 12.777z"></path></g><path d="M255.992 296.613c-4.277 0-5.105-1.87-16.25-13.861-4.58-4.927-1.081-12.986 5.661-12.986h21.18a7.723 7.723 0 0 1 5.658 12.986c-11.177 12.026-11.978 13.861-16.249 13.861z" fill="#b28d5b"></path><path d="M225.682 97.761c-18.183-2.75-36.446-.842-53.848 5.615-.122.045-4.099 1.551-4.188 1.64a128.786 128.786 0 0 0-9.21 4.316c-4.925 2.569-4.205 9.891 1.165 11.422l9.619 2.746c-22.97 10.42-46.382 32.827-59.518 63.501-1.577 3.654-3.187 6.638-.635 9.848 2.782 3.5 5.21 2.349 18.278.363-8.513 40.89-9.739 101.759 11.543 144.456 2.106 4.222 7.999 4.624 10.656.701l9.412-13.943c17.301 44.918 52.133 89.138 94.091 111.853.224.121.454.225.684.316-47.683-47.041-79.527-110.1-86.776-180.459.003-2.652-22.577-98.61 58.727-162.375z" fill="#dd5a2c"></path></symbol>

    <symbol id="virgo" viewBox="0 0 512 512"><path d="M378.927 72.309L355.796 58.84C209.297-14.987 34.371 91.426 34.371 256.995c0 122.473 99.286 221.762 221.76 221.762S477.89 379.468 477.89 256.995c0-77.062-39.307-144.943-98.963-184.686z" fill="#d8d8d8"></path><path d="M279.934 36.261C155.083 22.745 34.371 119.456 34.371 256.995c0 122.473 99.286 221.762 221.76 221.762 26.815 0 52.518-4.76 76.311-13.48-17.479 4.519-35.805 6.933-54.697 6.933-120.334 0-217.883-97.549-217.883-217.883-.001-125.254 103.551-219.325 220.072-218.066z" fill="#bdc4c6"></path><path d="M217.467 324.444a120.03 120.03 0 0 1 2.128-8.477" fill="#42aed3"></path><path d="M256.001.001C114.615.001 0 114.617 0 256c0 141.386 114.615 255.999 256.001 255.999C396.935 511.999 512 397.815 512 256 512 114.617 397.385.001 256.001.001zm0 473.885c-120.336 0-217.885-97.549-217.885-217.885 0-120.334 97.549-217.885 217.885-217.885 119.719 0 217.885 96.97 217.885 217.885.001 120.335-97.551 217.885-217.885 217.885z" fill="#e0af60"></path><path d="M276.769 199.995c-5.161-18.706-22.501-25.018-41.797-23.442-34.22 2.872-48.97-10.339-52.132-10.437l-5.317-.17c-2.138-.025-3.985 1.522-4.226 3.65-.043.381-4.829 38.131-48.086 55.101-3.907 1.535-3.255 7.267.87 7.907 4.854.759 18.554 4.644 23.588 13.415 2.695 4.696 2.727 10.232.096 16.93-1.029 2.625.827 5.471 3.617 5.623l2.432.129c-3.611 19.428-2.334 41.986 17.541 41.986 7.164 0 15.989-2.076 24.453-3.252h-.002l.004-.002c23.317-3.269 28.503 18.127 26.84 41.612-3.553 50.231 53.422-71.09 53.422-71.09s21.776-52.139-1.303-77.96z" fill="#eac69b"></path><path d="M335.925 397.507c1.54.929 3.488 1.653 5.813 2.159.023-.588-.129-1.181-.504-1.667-1.197-1.562-2.698-.883-5.309-.492z" fill="#2b9dbc"></path><g fill="#dbb183"><path d="M192.233 170.479c-11.078-4.842-4.602-4.209-14.707-4.532-2.138-.025-3.985 1.522-4.226 3.65-.043.381-4.829 38.131-48.086 55.101-3.907 1.535-3.255 7.267.87 7.907 4.854.759 18.554 4.644 23.588 13.415 2.695 4.696 2.727 10.232.096 16.93-1.029 2.625.827 5.471 3.617 5.623l2.432.129c-8.365 44.995 17.543 41.986 17.543 41.986 3.652 0 7.737-.537 12.071-1.237-22.813-43.557-20.765-96.919 6.802-138.972zM224.582 355.578c.449 5.996 2.69 6.849 6.024 4.298a134.816 134.816 0 0 1-6.024-4.298z"></path></g><path d="M321.378 359.526c14.487-18.268 34.326-43.288 46.919-74.285 19.048-46.887 14.44-94.417-7.972-132.839-48.893-92.409-89.387-35.982-112.194-46.458-26.144-12.007-56.264-25.688-80.27 2.073-24.16 27.937-4.594 72.973 47.978 73.716 28.226.395 49.448 7.946 56.769 20.2 6.502 10.879.049 18.429-12.816 36.214-10.425 14.42-23.401 32.368-33.25 52.854-37.251 79.584-7.977 157.494 80.657 135.87 1.196-.317 26.17-9.912 34.294-26.155.954-1.911-.71-4.098-2.816-3.678-15.083 2.858-37.272 3.249-34.518-11.897.925-5.066 8.117-14.134 17.219-25.615z" fill="#42aed3"></path><g fill="#2b9dbc"><path d="M231.457 182.763c-20.012-3.203-35.473-13.687-42.472-29.286-12.341-27.497 8.688-54.028 31.257-58.724-20.994-6.136-38.122-3.225-52.382 13.265-24.16 27.937-4.594 72.973 47.978 73.716 5.491.077 10.712.427 15.619 1.029zM254.268 293.065c15.655-32.554 39.727-59.474 46.579-72.638 8.676-16.693-10.965-35.985-57.283-36.632a85.983 85.983 0 0 1-8.645-.559c18.56 2.809 32.129 9.397 37.69 18.699 6.502 10.879.049 18.429-12.816 36.214-10.425 14.42-23.401 32.368-33.25 52.854-33.758 72.121-12.692 144.997 60.004 139.279-51.4-13.349-60.345-77.226-32.279-137.217z"></path></g></symbol>

    <symbol id="libra" viewBox="0 0 512 512"><path d="M378.963 70.366l-23.119-13.461C209.417-16.879 34.579 89.473 34.579 254.963c0 122.411 99.236 221.65 221.649 221.65 122.415 0 221.647-99.24 221.647-221.65 0-77.024-39.284-144.869-98.912-184.597z" fill="#fcf0d9"></path><path d="M34.579 254.963c0 122.411 99.236 221.65 221.649 221.65 29.894 0 58.398-5.932 84.419-16.66-20.22 6.199-41.688 9.545-63.939 9.545-120.332 0-217.88-97.55-217.88-217.882C58.828 128.89 158.2 36.141 271.796 33.6 149.983 25.096 34.579 120.513 34.579 254.963z" fill="#ead6b7"></path><g fill="#c2c5c6"><path d="M255.367 137.614a7.725 7.725 0 0 1-7.726-7.726V98.799a7.725 7.725 0 0 1 7.726-7.724 7.726 7.726 0 0 1 7.727 7.724v31.089a7.727 7.727 0 0 1-7.727 7.726zM256.265 375.657a7.729 7.729 0 0 1-7.728-7.728v-197.44a7.725 7.725 0 0 1 7.728-7.724 7.723 7.723 0 0 1 7.725 7.724V367.93a7.727 7.727 0 0 1-7.725 7.727z"></path></g><path d="M364.351 285.635a7.726 7.726 0 0 1-7.727-7.726V201.91a7.727 7.727 0 0 1 15.453 0v75.999a7.726 7.726 0 0 1-7.726 7.726z" fill="#a7d2db"></path><g fill="#cce5ed"><path d="M407.362 286.221l-49.674-84.533c-2.161-3.678-.932-8.416 2.748-10.575a7.722 7.722 0 0 1 10.576 2.748l49.672 84.529a7.726 7.726 0 0 1-2.745 10.577 7.726 7.726 0 0 1-10.577-2.746z"></path><path d="M310.764 288.968a7.73 7.73 0 0 1-2.75-10.577l49.675-84.529c2.163-3.68 6.9-4.911 10.576-2.748a7.725 7.725 0 0 1 2.748 10.575l-49.673 84.533a7.727 7.727 0 0 1-10.576 2.746z"></path></g><path d="M144.358 285.635a7.725 7.725 0 0 1-7.726-7.726V201.91a7.727 7.727 0 1 1 15.454 0v75.999a7.728 7.728 0 0 1-7.728 7.726z" fill="#a7d2db"></path><g fill="#cce5ed"><path d="M187.37 286.221l-49.674-84.533a7.726 7.726 0 0 1 2.748-10.575 7.721 7.721 0 0 1 10.575 2.748l49.674 84.529c2.161 3.682.934 8.416-2.748 10.577a7.724 7.724 0 0 1-10.575-2.746z"></path><path d="M90.77 288.968a7.728 7.728 0 0 1-2.747-10.577l49.674-84.529a7.725 7.725 0 0 1 10.576-2.748 7.727 7.727 0 0 1 2.747 10.575l-49.674 84.533a7.727 7.727 0 0 1-10.576 2.746z"></path></g><path d="M414.022 277.499h-99.345c-5.89 0-10.662 4.773-10.662 10.663v36.176c0 16.661 13.505 30.172 30.169 30.172h60.335c16.662 0 30.169-13.511 30.169-30.172v-36.176c0-5.89-4.775-10.663-10.666-10.663z" fill="#d18146"></path><path d="M328.852 324.338v-36.176c0-5.891 4.774-10.663 10.663-10.663h-24.837c-5.89 0-10.662 4.773-10.662 10.663v36.176c0 16.661 13.505 30.172 30.169 30.172h24.837c-16.665.001-30.17-13.51-30.17-30.172z" fill="#8e4c1b"></path><path d="M194.032 277.499H94.685c-5.889 0-10.662 4.773-10.662 10.663v36.176c0 16.661 13.506 30.172 30.167 30.172h60.338c16.659 0 30.166-13.511 30.166-30.172v-36.176c0-5.89-4.774-10.663-10.662-10.663z" fill="#d18146"></path><path d="M108.859 324.338v-36.176c0-5.891 4.774-10.663 10.662-10.663H94.685c-5.889 0-10.662 4.773-10.662 10.663v36.176c0 16.661 13.506 30.172 30.167 30.172h24.837c-16.661.001-30.168-13.51-30.168-30.172z" fill="#8e4c1b"></path><path d="M414.022 277.499h-99.345c-5.89 0-10.662 4.773-10.662 10.663v21.916h120.674v-21.916c-.001-5.89-4.776-10.663-10.667-10.663z" fill="#efa470"></path><path d="M328.852 310.079v-21.916c0-5.891 4.774-10.663 10.663-10.663h-24.837c-5.89 0-10.662 4.773-10.662 10.663v21.916h24.836z" fill="#d8854c"></path><path d="M194.031 277.499H94.685c-5.891 0-10.662 4.773-10.662 10.663v21.916h120.672v-21.916c-.001-5.89-4.775-10.663-10.664-10.663z" fill="#efa470"></path><path d="M108.859 310.079v-21.916c0-5.891 4.774-10.663 10.662-10.663H94.685c-5.88 0-10.662 4.764-10.662 10.663v21.916h24.836z" fill="#d8854c"></path><path d="M255.994.007C114.612.007 0 114.62 0 256s114.612 255.993 255.994 255.993c140.985 0 255.994-114.238 255.994-255.993C511.988 114.62 397.375.007 255.994.007zm0 473.874c-120.333 0-217.882-97.548-217.882-217.88 0-120.333 97.548-217.88 217.882-217.88 119.716 0 217.879 96.962 217.879 217.88 0 120.331-97.549 217.88-217.879 217.88z" fill="#ffbc00"></path><path d="M263.601 354.511h-15.216c-6.827 0-12.363 5.533-12.363 12.36v20.22h39.943v-20.22c-.001-6.827-5.535-12.36-12.364-12.36z" fill="#b36c27"></path><path d="M265.98 354.741c-1.594-.307-.968-.23-17.595-.23-6.827 0-12.363 5.533-12.363 12.36v20.22h19.972v-20.22c-.001-6.013 4.293-11.02 9.986-12.13z" fill="#9e571d"></path><path d="M255.367 66.014c-9.748 0-17.68 7.931-17.68 17.684 0 9.746 7.931 17.68 17.68 17.68 9.75 0 17.683-7.933 17.683-17.68-.001-9.753-7.933-17.684-17.683-17.684z" fill="#ffbc00"></path><path d="M399.357 135.923c-8.541-7.213-21.922-4.115-26.321 6.442-1.045 2.502-2.73 5.635-4.832 6.32-10.114 3.296-41.201-16.825-50.968-22.624-20.482-12.29-42.885-10.866-61.869 3.827-18.415-14.252-40.785-16.478-61.868-3.827-9.863 5.857-40.797 25.94-50.97 22.624-2.102-.686-3.786-3.819-4.83-6.32-3.804-9.127-14.787-13.216-23.797-8.173a16.647 16.647 0 0 0-2.534 1.739c-14.821 12.244 1.161 36.822 18.173 43.806 1.366-6.939 7.478-12.174 14.817-12.174 7.663 0 13.977 5.713 14.959 13.107 22.731-5.961 47.744-24.67 55.876-27.92 4.862-1.854 9.355-1.843 14.34.5 4.791 2.243 9.854 6.896 12.035 10.083l-.074-.111c6.513 9.53 20.918 9.918 27.748 0l-.078.111c1.412-2.229 11.192-13.588 22.449-11.68 9.534 1.579 33.027 21.263 57.863 28.48 1.209-7.132 7.401-12.569 14.875-12.569 7.591 0 13.857 5.606 14.928 12.898 15.744-5.453 26.117-22.347 26.117-31.617 0-7.324-5.039-12.514-6.039-12.922z" fill="#d18146"></path><path d="M402.766 139.83c-17.598 42.674-66.288 16.993-66.288 16.993v-.004c-23.729-10.597-36.607-22.75-45.904-23.756-9.957-1.031-19.163 8.458-21.41 11.824l.078-.109c-6.889 10.003-21.29 9.448-27.748 0l.074.109c-3.105-4.303-10.22-10.661-17.194-11.711-7.208-1.087-12.397 2.582-17.801 5.85-12.391 7.47-24.988 15.051-37.375 19.921l-.004.012s-27.63 15.424-49.301-3.471c-4.279-3.535-8.497-8.549-11.924-15.666-8.735 13.957 7.493 34.137 21.57 39.915 1.366-6.939 7.478-12.174 14.817-12.174 7.663 0 13.977 5.713 14.959 13.107 20.814-5.458 45.113-22.445 52.875-26.536 6.503-3.522 12.006-3.393 17.341-.886 4.866 2.278 9.885 6.941 12.035 10.083l-.074-.111c6.513 9.53 20.918 9.918 27.748 0l-.078.111c.633-1.001 3.685-4.601 7.838-7.605 11.518-8.178 19.289-3.02 27.158 1.741 15.051 9.074 30.404 18.33 45.316 22.663 1.209-7.132 7.401-12.569 14.875-12.569 7.591 0 13.857 5.606 14.928 12.898 15.048-5.21 32.52-26.16 23.489-40.629z" fill="#8e4c1b"></path><path d="M399.367 135.931c-.002-.004-.005-.006-.01-.008-8.574-7.241-21.936-4.079-26.321 6.442-1.045 2.502-2.73 5.635-4.832 6.32-10.114 3.296-41.201-16.825-50.968-22.624-20.354-12.214-42.552-10.843-61.316 3.412a256.7 256.7 0 0 0-3.64 40.765c7.214 1.195 13.453-1.921 16.963-7.019l-.078.111c1.412-2.229 11.192-13.588 22.449-11.68 9.534 1.579 33.027 21.263 57.863 28.48 1.209-7.132 7.401-12.569 14.875-12.569 7.591 0 13.857 5.606 14.928 12.898 17.561-6.082 35.813-31.504 20.087-44.528z" fill="#db9463"></path><path d="M402.766 139.83c-17.598 42.674-66.288 16.993-66.288 16.993v-.004c-23.729-10.597-36.607-22.75-45.904-23.756-9.957-1.031-19.163 8.458-21.41 11.824l.078-.109c-4.054 5.887-10.955 7.958-16.125 7.136a259.325 259.325 0 0 0-.839 18.325c7.214 1.195 13.453-1.921 16.963-7.019l-.078.111c.633-1.001 3.685-4.601 7.838-7.605 11.518-8.178 19.289-3.02 27.158 1.741 15.051 9.074 30.404 18.33 45.316 22.663 1.209-7.132 7.401-12.569 14.875-12.569 7.591 0 13.857 5.606 14.928 12.898 15.047-5.21 32.519-26.16 23.488-40.629z" fill="#c17c4d"></path><g fill="#ffbc00"><path d="M144.358 164.989c-9.749 0-17.681 7.929-17.681 17.678 0 9.75 7.931 17.684 17.681 17.684s17.682-7.933 17.682-17.684c0-9.749-7.932-17.678-17.682-17.678zM364.351 164.989c-9.75 0-17.682 7.929-17.682 17.678 0 9.75 7.931 17.684 17.682 17.684 9.749 0 17.682-7.933 17.682-17.684-.001-9.749-7.933-17.678-17.682-17.678z"></path></g><path d="M310.982 410.856c0 6.829-5.534 12.363-12.36 12.363h-85.257c-6.827 0-12.362-5.535-12.362-12.363v-13.392c0-6.829 5.535-12.363 12.362-12.363h85.257c6.827 0 12.36 5.535 12.36 12.363v13.392z" fill="#d18146"></path><path d="M298.622 406.148h-85.257c-6.201 0-11.321-4.571-12.211-10.523-.202 1.349-.151.448-.151 15.231 0 6.829 5.535 12.363 12.362 12.363h85.257c6.827 0 12.36-5.535 12.36-12.363 0-14.854.049-13.896-.15-15.231-.889 5.952-6.011 10.523-12.21 10.523z" fill="#8e4c1b"></path></symbol>

    <symbol id="scorpio" viewBox="0 0 512 512"><path d="M380.39 68.74l-23.453-13.655c-148.534-74.846-325.9 33.036-325.9 200.911 0 124.178 100.667 224.845 224.845 224.845s224.843-100.667 224.843-224.845c.002-78.132-39.85-146.958-100.335-187.256z" fill="#82e3f9"></path><path d="M278.77 472.206c-120.334 0-217.882-97.547-217.882-217.88 0-138.953 127.44-239.529 258.651-214.144C180.227-1.464 31.038 102.03 31.038 255.996c0 124.179 100.667 224.845 224.845 224.845 33.454 0 65.196-7.317 93.728-20.421-22.21 7.634-46.04 11.786-70.841 11.786z" fill="#6ad3ef"></path><path d="M255.994.005C114.613.005 0 114.619 0 256c0 141.383 114.613 255.995 255.994 255.995 140.989 0 255.994-114.236 255.994-255.995C511.988 114.619 397.377.005 255.994.005zm0 473.878c-120.334 0-217.881-97.547-217.881-217.882 0-120.332 97.546-217.882 217.881-217.882 119.717 0 217.881 96.969 217.881 217.882.001 120.334-97.55 217.882-217.881 217.882z" fill="#42aed3"></path><g fill="#36a2bf"><path d="M305.195 247.385l-28.294-15.033a7.722 7.722 0 0 1-3.198-10.446c2.002-3.771 6.68-5.196 10.448-3.201l24.918 13.239c6.72-3.471 22.75-13.759 28.476-35.138a7.728 7.728 0 0 1 14.928 3.998c-9.265 34.601-39.62 46.49-40.908 46.98a7.744 7.744 0 0 1-6.37-.399z"></path><path d="M282.533 270.202a7.727 7.727 0 0 1-3.866-10.218 7.724 7.724 0 0 1 10.22-3.87l28.275 12.755c6.961-2.984 25.943-12.788 32.344-33.075a7.726 7.726 0 0 1 9.695-5.044 7.724 7.724 0 0 1 5.041 9.694c-10.298 32.641-43.523 43.699-44.931 44.153-3.778 1.221-3.072.808-36.778-14.395z"></path><path d="M279.816 302.625a7.722 7.722 0 0 1-1.793-10.777 7.724 7.724 0 0 1 10.778-1.794l22.5 16.083c6.822-1.489 24.679-6.827 33.633-23.123 2.055-3.738 6.753-5.108 10.492-3.051a7.724 7.724 0 0 1 3.05 10.493c-15.058 27.407-46.785 31.379-48.129 31.533-3.906.465-3.489-.034-30.531-19.364zM273.065 335.945a7.722 7.722 0 0 1-1.793-10.775 7.722 7.722 0 0 1 10.779-1.798l22.696 16.222c4.86-.725 15.314-2.774 23.169-7.773 3.601-2.287 8.378-1.229 10.667 2.373a7.725 7.725 0 0 1-2.372 10.667c-13.777 8.766-32.074 10.407-32.848 10.472-3.795.306-3.134.024-30.298-19.388zM177.168 247.258c-5.039 0-34.782-14.367-43.652-47.485a7.728 7.728 0 0 1 5.465-9.463c4.123-1.109 8.36 1.343 9.462 5.465 5.705 21.299 21.789 31.65 28.489 35.132l24.907-13.232a7.728 7.728 0 0 1 10.45 3.201 7.725 7.725 0 0 1-3.198 10.445c-30.699 16.31-29.336 15.937-31.923 15.937z"></path><path d="M169.054 283.939c-4.383 0-37.312-12.846-47.306-44.528a7.725 7.725 0 0 1 5.041-9.692c4.071-1.29 8.411.974 9.694 5.044 6.398 20.274 25.365 30.079 32.349 33.073l28.271-12.755a7.726 7.726 0 0 1 10.22 3.87 7.726 7.726 0 0 1-3.865 10.218c-33.905 15.296-32.121 14.77-34.404 14.77z"></path><path d="M175.642 320.962c-1.344-.158-33.073-4.128-48.131-31.537a7.726 7.726 0 1 1 13.544-7.44c8.947 16.288 26.791 21.629 33.632 23.12l22.501-16.081a7.724 7.724 0 0 1 10.778 1.794 7.724 7.724 0 0 1-1.792 10.778c-26.965 19.274-26.605 19.833-30.532 19.366zM183.28 354.33c-1.538 0-19.908-1.854-33.501-10.499a7.73 7.73 0 0 1-2.374-10.667 7.728 7.728 0 0 1 10.667-2.373c7.853 4.997 18.305 7.046 23.17 7.771l22.694-16.218a7.728 7.728 0 0 1 8.989 12.572c-27.299 19.506-26.343 19.414-29.645 19.414z"></path></g><path d="M387.722 277.703c-8.039-14.389-8.567.129-8.567.129-.031 12.34-5.661 20.557-9.651 24.824-7.301 4.916-10.028 14.154-6.823 22.115 1.041 2.438 3.144 10.079 14.816 11.246 0 0-10.695 55.445-53.807 63.889-19.12 4.931-33.21-1.598-46.228-16.072-12.488-17.003-7.653-37.347-3.885-47.553 1.694-3.557 2.83-6.531 2.83-6.531l-.013-.004c7.107-18.026 11.019-41.483 11.019-66.306 0-96.234-51.764-129.149-76.96-67.811-14.466 35.21-15.109 88.709-3.604 125.553l-.011-.012c10.43 29.766 27.433 60.271 51.283 84.821 14.506 14.994 32.021 22.896 49.475 24.239l-.138-.154c48.596 3.322 86.602-44.658 90.33-102.548 2.414-20.859-3.712-38.128-10.066-49.825z" fill="#42aed3"></path><path d="M323.201 429.28c-45.19-8.361-78.172-65.029-93.657-108.113l.012.012c-16.892-54.065-6.312-136.383 24.927-153.519-12.849-7.044-31.201-3.267-44.031 27.966-14.466 35.21-15.109 88.709-3.604 125.553l-.011-.012c10.43 29.766 27.433 60.271 51.283 84.821 14.506 14.994 32.021 22.896 49.475 24.239l-.138-.154c5.295.361 10.603.07 15.744-.793z" fill="#30a3c1"></path><g fill="#2e93aa"><path d="M259.577 230.163h-33.962a7.727 7.727 0 0 1 0-15.452h33.962a7.725 7.725 0 0 1 7.725 7.728 7.722 7.722 0 0 1-7.725 7.724zM259.577 260.786h-33.962a7.728 7.728 0 0 1 0-15.456h33.962a7.726 7.726 0 0 1 7.725 7.728 7.724 7.724 0 0 1-7.725 7.728zM259.577 291.407h-33.962a7.726 7.726 0 0 1-7.727-7.728 7.725 7.725 0 0 1 7.727-7.724h33.962a7.723 7.723 0 0 1 7.725 7.724 7.723 7.723 0 0 1-7.725 7.728zM259.577 322.027h-33.962a7.726 7.726 0 1 1 0-15.452h33.962a7.724 7.724 0 0 1 7.725 7.726 7.723 7.723 0 0 1-7.725 7.726z"></path></g><g fill="#36a2bf"><path d="M279.918 212.106a7.725 7.725 0 0 1 .038-15.45c7.636 0 18.397-3.472 24.791-9.933 5.793-5.85 8.692-14.243 8.622-24.949a7.73 7.73 0 0 1 7.678-7.775c4.39 0 7.748 3.5 7.776 7.677.097 15.035-4.351 27.166-13.225 36.053-9.37 9.385-24.018 14.377-35.68 14.377zM156.366 161.677a7.725 7.725 0 0 1 7.777-7.677 7.73 7.73 0 0 1 7.678 7.775c-.072 10.757 2.856 19.179 8.705 25.035 9.619 9.631 24.462 9.847 24.664 9.847.023-.033.027-.002.043 0a7.728 7.728 0 0 1 7.729 7.685 7.727 7.727 0 0 1-7.69 7.765c-21.355-.001-49.141-13.892-48.906-50.43zM325.313 85.691c-1.317-2.125-4.572-1.301-4.758 1.161-.02.236-1.913 23.704-10.845 33.518-2.205 2.427 1.274 5.845 3.66 3.6l20.743 22.019a65.915 65.915 0 0 1-.348 1.749c-.736 3.329 4.306 4.423 5.027 1.105 6.627-30.181-12.654-61.817-13.479-63.152zM164.638 86.852a2.582 2.582 0 0 0-1.961-2.307 2.58 2.58 0 0 0-2.8 1.146c-.824 1.335-20.102 32.971-13.481 63.151.722 3.296 5.762 2.245 5.032-1.105a42.584 42.584 0 0 1-.35-1.749l20.741-22.019c2.384 2.246 5.867-1.175 3.659-3.6-8.931-9.813-10.821-33.281-10.84-33.517z"></path></g><g fill="#42aed3"><path d="M339.032 144.156a2.57 2.57 0 0 0-1.442-2.081c-33.916-16.419-39.279-63.179-39.329-63.648-.262-2.526-3.667-3.18-4.845-.917-14.121 27.19-7.348 50.276.821 64.852 8.775 15.655 20.699 24.816 21.203 25.199.559.426 1.257.59 1.899.502 23.338-3.114 21.713-23.699 21.693-23.907zM186.93 78.427c-.051.469-5.359 47.206-39.326 63.648a2.572 2.572 0 0 0-1.442 2.081c-.021.207-1.648 20.793 21.69 23.907 3.019.418 50.762-38.868 23.927-90.552-1.187-2.273-4.586-1.602-4.849.916z"></path></g><g fill="#36a2bf"><path d="M267.237 161.664l-.002-.002c-.569 2.514-2.175 5.549-6.219 8.194-3.57 2.338-4.574 7.124-2.236 10.695 2.331 3.569 7.12 4.574 10.695 2.237 7.655-5.009 11.276-11.446 12.687-17.362 2.657-9.73-11.335-13.074-14.925-3.762zM210.299 156.264c6.582-1.011 9.052 5.4 9.052 5.4l.004-.002c.563 2.514 2.175 5.549 6.216 8.194a7.727 7.727 0 1 1-8.459 12.932c-7.656-5.009-11.273-11.446-12.685-17.362-.489-1.602-.881-8.125 5.872-9.162z"></path></g></symbol>

    <symbol id="sagittarius" viewBox="0 0 512 512"><path d="M380.449 68.581l-23.47-13.67C208.315-20.003 30.804 87.978 30.804 255.996c0 124.283 100.752 225.04 225.037 225.04 124.284 0 225.037-100.757 225.037-225.04-.001-78.202-39.889-147.084-100.429-187.415z" fill="#d8d8d8"></path><path d="M328.5 42.871C186.586-6.112 30.804 98.596 30.804 255.996c0 124.283 100.752 225.04 225.037 225.04 38.514 0 74.764-9.684 106.461-26.738-26.551 11.517-55.841 17.906-86.625 17.906-120.331 0-217.88-97.546-217.88-217.878.001-143.2 135.361-245.648 270.703-211.455z" fill="#c4c3c2"></path><g fill="#6ad3ef"><path d="M155.749 264.758c-6.816 0-10.33-8.276-5.492-13.161l127.406-128.72a7.73 7.73 0 0 1 10.927-.057 7.725 7.725 0 0 1 .057 10.927c-137.38 138.797-128.292 131.011-132.898 131.011z"></path><path d="M277.663 391.183L150.257 262.467a7.726 7.726 0 1 1 10.983-10.87l127.407 128.716a7.724 7.724 0 0 1-.057 10.927 7.725 7.725 0 0 1-10.927-.057z"></path></g><path d="M117.833 223.091a2.572 2.572 0 0 0-2.115-1.108c-37.722 0-36.406-.519-37.399 1.384-.997 1.903-1.466.313 21.72 33.663-23.182 33.344-22.719 31.762-21.72 33.663a2.574 2.574 0 0 0 2.282 1.386c37.9 0 36.171.421 37.233-1.108.43-.619 22.729-32.534 22.927-33.262.457-1.662 1.408.379-22.928-34.618z" fill="#ffbc00"></path><path d="M335.34 328.759c14.44-24.067 12.371-49.997-4.437-71.729 16.888-21.816 18.809-47.774 4.437-71.729-.995-1.655-1.999-3.32-3.006-4.989-30.777-51.065-26.222-55.402-15.9-59.707 9.948-4.146 14.651-15.565 10.507-25.509-4.146-9.945-15.569-14.649-25.511-10.505-18.899 7.876-26.417 20.368-29.397 29.464-9.36 28.565 11.379 60.6 29.853 91.318 5.083 8.477 5.385 15.75.972 23.582-4.13 7.325-10.663 12.031-10.73 12.078l.141-.098.008.012c-11.366 7.776-11.267 24.47-.008 32.177.057.041 6.025 4.378 10.132 11.202 7.592 12.608 1.364 21.23-3.475 29.275-17.586 29.162-35.768 59.316-26.892 86.403 6.354 19.4 26.912 30.971 36.892 30.971 7.642 0 14.895-4.519 18.016-12.01 4.144-9.946-.559-21.367-10.507-25.511-2.9-1.21-6.527-3.162-7.327-5.6-2.76-8.452 9.019-29.772 13.261-37.248" fill="#b36c27"></path><path d="M293.207 400.005c-9.426-28.757 11.694-61.018 29.852-91.32 5.237-8.733 5.4-16.247.516-24.358-4.108-6.825-10.075-11.161-10.132-11.202-11.271-7.714-11.348-24.408.008-32.177l-.008-.012-.143.098c.064-.047 6.6-4.753 10.73-12.078 6.849-12.153.892-20.5-3.933-28.496-17.586-29.16-35.77-59.318-26.891-86.405 2.797-8.541 9.604-20.081 26.074-27.977-5.179-3.234-11.785-4.013-17.85-1.487-18.899 7.876-26.417 20.368-29.397 29.464-9.36 28.565 11.379 60.6 29.853 91.318 5.083 8.477 5.385 15.75.972 23.582-4.13 7.325-10.663 12.031-10.73 12.078l.141-.098.008.012c-11.366 7.776-11.267 24.47-.008 32.177.057.041 6.025 4.378 10.132 11.202 7.592 12.608 1.364 21.23-3.475 29.275-17.586 29.162-35.768 59.316-26.892 86.403 6.354 19.4 26.912 30.971 36.892 30.971 3.686 0 7.276-1.062 10.362-2.992-16.475-7.893-23.283-19.433-26.081-27.978z" fill="#8e4c1b"></path><path d="M335.34 185.301c-.995-1.655-1.999-3.32-3.006-4.989-30.777-51.065-26.222-55.402-15.9-59.707 9.948-4.146 14.651-15.565 10.507-25.509-4.146-9.945-15.569-14.649-25.511-10.505-18.899 7.876-26.417 20.368-29.397 29.464-9.36 28.565 11.379 60.6 29.853 91.318 5.083 8.477 5.385 15.75.972 23.582-4.13 7.325-10.663 12.031-10.73 12.078l.141-.098.008.012c-11.366 7.776-11.267 24.47-.008 32.177.057.041 6.025 4.378 10.132 11.202 7.789 12.936 1.405 21.238-5.582 32.772a256.578 256.578 0 0 0 26.234 32.357l12.287-20.698c14.44-24.067 12.371-49.997-4.437-71.729 16.889-21.815 18.81-47.772 4.437-71.727z" fill="#db9463"></path><path d="M301.886 205.372c5.083 8.477 5.385 15.75.972 23.582-4.13 7.325-10.663 12.031-10.73 12.078l.141-.098.008.012c-11.366 7.776-11.267 24.47-.008 32.177.057.041 6.025 4.378 10.132 11.202 7.511 12.473 1.952 20.73-5.582 32.772a257.46 257.46 0 0 0 11.838 15.929c14.576-25.984 24.076-33.492 14.918-48.7-4.108-6.825-10.075-11.161-10.132-11.202-11.271-7.714-11.348-24.408.008-32.177l-.008-.012-.143.098c.064-.047 6.6-4.753 10.73-12.078 4.413-7.831 4.112-15.106-.972-23.582-18.564-30.867-39.2-62.8-29.852-91.318 2.797-8.541 9.604-20.081 26.074-27.977 0 0-2.974-1.989-7.001-2.684-3.881-.676-7.672-.141-10.849 1.196-18.899 7.876-26.417 20.368-29.397 29.464-9.36 28.565 11.379 60.601 29.853 91.318z" fill="#c17c4d"></path><path d="M255.993.007C114.612.007 0 114.619 0 256c0 141.382 114.612 255.993 255.993 255.993 140.942 0 255.995-114.19 255.995-255.993C511.988 114.619 397.375.007 255.993.007zm0 473.873c-120.332 0-217.88-97.546-217.88-217.88 0-120.331 97.547-217.88 217.88-217.88 119.699 0 217.88 96.946 217.88 217.88 0 120.333-97.549 217.88-217.88 217.88z" fill="#ffbc00"></path><path d="M373.987 264.758H80.601a7.726 7.726 0 0 1-7.726-7.728 7.727 7.727 0 0 1 7.726-7.728h293.386a7.726 7.726 0 0 1 7.726 7.728 7.727 7.727 0 0 1-7.726 7.728z" fill="#c2c5c6"></path><path d="M411.248 254.503c-38.099-26.777-36.394-26.347-38.686-25.15a3.076 3.076 0 0 0-1.665 2.74c0 53.598-.644 51.42 1.665 52.617a3.077 3.077 0 0 0 3.201-.215c38.39-26.978 36.797-25.253 36.797-27.465a3.083 3.083 0 0 0-1.312-2.527z" fill="#ffbc00"></path></symbol>

    <symbol id="capricorn" viewBox="0 0 512 512"><path d="M378.94 71.319l-23.124-13.465C209.357-15.961 34.47 90.434 34.47 255.962c0 122.443 99.259 221.704 221.702 221.704 122.445 0 221.707-99.261 221.707-221.704.001-77.046-39.298-144.909-98.939-184.643z" fill="#e28160"></path><path d="M279.801 469.5c-120.334 0-217.883-97.551-217.883-217.883 0-118.716 92.966-209.369 201.852-217.48-118.854-3.91-229.3 90.283-229.3 221.825 0 122.443 99.259 221.704 221.702 221.704 30.254 0 59.089-6.069 85.366-17.041-19.574 5.774-40.293 8.875-61.737 8.875z" fill="#c96347"></path><path d="M255.994.006C114.613.006 0 114.619 0 256s114.613 255.994 255.994 255.994c140.986 0 255.994-114.239 255.994-255.994C511.988 114.619 397.375.006 255.994.006zm0 473.875c-120.332 0-217.879-97.549-217.879-217.881 0-120.334 97.547-217.881 217.879-217.881 119.716 0 217.883 96.968 217.883 217.881.001 120.332-97.549 217.881-217.883 217.881z" fill="#e0af60"></path><path d="M277.737 391.58c-.362-3.195-5.066-2.933-5.12.244l-35.715-.635c-1.698-1.411-2.848-2.189-2.904-2.228-2.833-1.867-5.676 2.419-2.84 4.3 1.142.754 27.711 18.776 12.528 43.924-1.196 1.973.633 4.433 2.898 3.813.357-.1 35.625-10.415 31.153-49.418z" fill="#dbb16e"></path><path d="M360.233 99.32c-89.643 109.364-84.671 102.465-84.255 104.569a3.085 3.085 0 0 0 1.567 2.12c40.605 21.829 37.969 20.592 39.079 20.592a3.087 3.087 0 0 0 3.059-2.635c1.474-5.038 28.099-75.173 45.825-121.585 1.249-3.252-3.061-5.761-5.275-3.061zM319.03 221.565zm.622 1.316zm-.258-.749z" fill="#c97d49"></path><path d="M350.137 142.728a32493.708 32493.708 0 0 1 15.371-40.345c1.248-3.254-3.062-5.762-5.275-3.063-89.643 109.364-84.671 102.465-84.255 104.569.374 1.905.513 1.554 15.951 9.855l58.208-71.016z" fill="#b26e3f"></path><path d="M151.355 99.32a3.086 3.086 0 0 0-3.939-.713 3.084 3.084 0 0 0-1.337 3.776c42.85 112.202 46.324 122.861 46.324 122.861a3.092 3.092 0 0 0 4.023.991c40.755-21.913 38.793-20.364 39.186-22.345.405-2.048 5.828 5.335-84.257-104.57zm40.522 124.345zm.063-.796zm.323-.861z" fill="#bf723d"></path><path d="M211.542 214.334a3.089 3.089 0 0 1-3.061-2.635c-1.058-3.617-15.074-40.773-29.459-78.622l-27.668-33.756a3.086 3.086 0 0 0-3.939-.713 3.084 3.084 0 0 0-1.337 3.776c42.85 112.203 46.324 122.861 46.324 122.861a3.092 3.092 0 0 0 4.023.991c40.755-21.913 38.793-20.364 39.186-22.345a3.081 3.081 0 0 0-.254-1.94c-24.326 13.074-22.733 12.383-23.815 12.383z" fill="#a05d30"></path><path d="M374.378 226.002c-16.301-7.97-36.474-11.752-52.697-5.582-34.077-31.858-97.051-32.457-131.771 0-16.184-6.151-36.326-2.423-52.697 5.582a2.572 2.572 0 0 0-1.439 2.516c.031.396 3.543 39.553 42.091 39.553 3.266 0 6.729-.289 10.314-.856-21.748 35.594 26.146 58.874 18.535 93.992-6.523 30.104 19.082 41.72 49.08 39.27 14.681 1.196 35.03-1.347 44.52-13.114 5.354-6.633 6.884-15.432 4.562-26.156-7.612-35.122 40.286-58.389 18.537-93.992 5.992.948 10.316.856 10.316.856 38.549 0 42.055-39.159 42.087-39.553a2.578 2.578 0 0 0-1.438-2.516z" fill="#f2cd83"></path><g fill="#7a746f"><path d="M234.666 307.214c-3.336 3.352-10.302 1.829-15.561-3.41-5.259-5.23-6.816-12.19-3.477-15.543 3.334-3.35 10.304-1.827 15.559 3.404 5.259 5.239 6.817 12.197 3.479 15.549zM276.936 307.214c3.338 3.352 10.306 1.829 15.565-3.41 5.255-5.23 6.816-12.19 3.475-15.543-3.334-3.35-10.304-1.827-15.559 3.404-5.259 5.239-6.817 12.197-3.481 15.549z"></path></g><g fill="#e8be74"><path d="M255.793 357.423a7.73 7.73 0 0 0-7.728 7.728v35.544c3.026.047 5.642-.047 7.728-.217 2.083.17 4.699.265 7.728.217v-35.544a7.73 7.73 0 0 0-7.728-7.728zM263.724 196.625c-3.335-.196-12.039-.209-15.451-.025v38.426a7.726 7.726 0 1 0 15.452 0v-38.401h-.001z"></path></g><path d="M270.702 350.247c0 8.232-6.672 14.905-14.909 14.905-8.23 0-14.905-6.672-14.905-14.905s6.674-5.525 14.905-5.525c8.235-.001 14.909-2.71 14.909 5.525z" fill="#d18146"></path><path d="M226.989 361.207c2.799-12.923-1.907-24.235-7.835-35.019-4.232-4.823-7.98-11.377-11.068-19.958h-.002c-2.085-4.373-2.131-4.669-3.006-9.504-14.932-54.329 16.884-86.491 33.602-99.103a102.147 102.147 0 0 0-13.78 3.096l-.018-.008c-11.157 3.338-23.789 9.254-34.972 19.71-16.184-6.151-36.326-2.423-52.697 5.582a2.572 2.572 0 0 0-1.439 2.516c.031.396 3.543 39.553 42.091 39.553 3.266 0 6.729-.289 10.314-.856-15.098 24.709 3.479 43.706 13.948 65.275 2.757 5.849 4.293 11.279 3.968 10.493 1.607 6.009 1.956 12.037.619 18.223-6.523 30.104 19.082 41.72 49.08 39.27 5.107.416 9.138.147 10.14.147-26.787-1.139-44.594-13.327-38.945-39.417z" fill="#e5b767"></path></symbol>

    <symbol id="aquarius" viewBox="0 0 512 512"><path d="M252.217 34.823c-71.475 1.174-134.69 36.273-174.247 89.904-57.838 77.717-56.953 185.773.001 262.301 49.369 66.932 130.235 98.942 208.789 87.795 102.135-14.267 183.074-98.753 189.699-205.121 8.021-131.013-97.696-237.327-224.242-234.879z" fill="#d8d8d8"></path><path d="M279.434 470.533c-120.336 0-217.886-97.551-217.886-217.887 0-119.533 94.329-210.686 204.23-217.652a220.8 220.8 0 0 0-13.56-.17c-71.475 1.174-134.69 36.273-174.247 89.904-57.837 77.717-56.953 185.772.002 262.301 49.369 66.932 130.235 98.942 208.789 87.795a219.396 219.396 0 0 0 39.747-9.4 218.732 218.732 0 0 1-47.075 5.109z" fill="#d3cfc9"></path><path d="M284.104 156.576c.228.411 4.14 7.947 4.14 8.418 5.46 12.532 7.738 24.166 8.408 36.563v.004c4.942 45.853 31.556 40.982 31.556 40.982 1.898-3.29 2.395-4.325 3.87-5.937l-41.686 72.197c.666-2.083 1.282-2.978 3.207-6.315 0 0-9.09-25.483-51.268-6.84-.001.002-.001.002-.003.002-26.15 14.075-53.81 11.559-51.641 11.559-75.112-3.33-122.138-85.651-83.615-152.375 40.133-69.513 140.4-65.889 177.032 1.742z" fill="#e86b2c"></path><path d="M129.738 154.834c16.789-29.079 45.776-46.716 76.765-50.195-38.938-4.378-78.586 14.091-99.43 50.195-41.85 72.487 17.264 160.846 99.296 151.827-72.245-8.122-113.409-88.124-76.631-151.827z" fill="#d35720"></path><path d="M328.208 242.543s-26.613 4.87-31.556-40.982v-.004c-.669-12.389-3.015-24.236-8.408-36.559 0-1.003-10.103-23.253-29.123-38.282-9.949 54.672-2.304 113.352 25.609 165.901 6.787 4.039 8.87 9.871 8.87 9.871l-1.652 2.859c.075.123.152.244.229.369l39.902-69.11c-1.475 1.611-1.971 2.643-3.871 5.937z" fill="#ed7743"></path><path d="M203.018 104.305l-91.73 158.882c13.752 20.064 34.194 33.999 55.626 40.124l98.667-170.895c-16.895-16.221-38.986-26.285-62.563-28.111z" fill="#f97d46"></path><g fill="#e56f41"><path d="M202.514 105.176c1.321-.201 2.647-.387 3.976-.535a95.863 95.863 0 0 0-3.476-.33l-.5.865zM171.158 295.959c-22.546-11.703-39.174-30.573-48.04-53.264l-11.83 20.492c13.601 19.812 33.733 33.867 55.626 40.124l4.244-7.352z"></path></g><path d="M262.069 186.023l19.499-33.777c-4.01-6.636-9.352-13.402-15.989-19.831L166.912 303.31c8.248 2.342 16.298 3.704 25.166 3.933l56.534-97.919" fill="#efa726"></path><path d="M193.712 304.416c-7.682-1.878-14.945-4.533-22.555-8.457l-4.244 7.352c8.248 2.342 16.298 3.704 25.166 3.933l1.633-2.828z" fill="#db8d0f"></path><path d="M256.066 196.417c7.738-13.398 2.62-4.532 25.503-44.171-4.01-6.636-9.352-13.402-15.989-19.831l-9.484 16.425c-1.49 16.035-1.5 31.527-.03 47.577z" fill="#f4af40"></path><path d="M228.843 109.775a100.973 100.973 0 0 0-25.826-5.471l-91.73 158.882a100.921 100.921 0 0 0 17.651 19.629c84.787-146.852 50.514-87.492 99.905-173.04z" fill="#efa726"></path><g fill="#db8d0f"><path d="M123.118 242.696l-11.83 20.492a100.878 100.878 0 0 0 17.651 19.629l8.544-14.801a101.543 101.543 0 0 1-14.365-25.32zM203.014 104.311l-.499.866c1.325-.201 2.655-.387 3.989-.537-1.163-.13-2.326-.239-3.49-.329z"></path></g><path d="M351.117 331.46c-1.812 0-.135-1.522-25.484 32.045-18.38 24.334 4.941 58.744 34.633 49.856 21.986-6.848 29.359-32.601 16.329-49.856-25.417-33.657-23.713-32.045-25.478-32.045z" fill="#6ad3ef"></path><path d="M352.266 363.505l12.165-16.11c-12.231-16.193-11.611-15.936-13.315-15.936-.809 0-1.571.378-2.057 1.024l-23.426 31.021c-19.846 26.275 8.749 62.098 38.8 48.274-18.535-8.505-24.434-32.028-12.167-48.273z" fill="#47b7d1"></path><path d="M351.117 331.46c-1.768 0-.722-.743-19.402 23.991a256.803 256.803 0 0 0 49.497 37.93c3.429-9.765 2.073-21.018-4.615-29.877-25.419-33.656-23.715-32.044-25.48-32.044z" fill="#89e3f7"></path><path d="M348.319 370.355c1.984-4.72 3.056-5.67 16.113-22.959-12.231-16.193-11.611-15.936-13.315-15.936-1.768 0-.722-.743-19.402 23.991a258.098 258.098 0 0 0 16.604 14.904z" fill="#54c6d1"></path><path d="M400.295 295.608c-15.149-20.06-14.416-19.683-16.145-19.683-1.715 0-.939-.458-16.145 19.683-8.509 11.269-3.204 27.797 10.795 31.715l.667-2.487-.513 2.528c2.291.626 4.927.851 7.646.528l-.319-2.558.435 2.544c15.032-1.786 23.107-19.651 13.579-32.27z" fill="#6ad3ef"></path><path d="M381.714 310.6c-1.398-10.034 3.985-15.111 11.236-24.717-7.291-9.654-7.14-9.956-8.8-9.956-1.715 0-.939-.458-16.145 19.683-8.441 11.179-3.321 27.765 10.795 31.715l.667-2.487-.513 2.528c2.291.626 4.927.851 7.646.528l-.319-2.558.435 2.544c1.972-.234 4.115-.841 6.233-1.863-6.138-2.972-10.297-8.698-11.235-15.417z" fill="#54c6d1"></path><path d="M256 0C114.616 0 0 114.613 0 255.999 0 397.383 114.616 512 256 512c141.012 0 256-114.256 256-256.001C512 114.613 397.386 0 256 0zm0 473.886c-120.335 0-217.885-97.55-217.885-217.886 0-120.334 97.55-217.886 217.885-217.886 119.701 0 217.886 96.951 217.886 217.886.001 120.335-97.55 217.886-217.886 217.886z" fill="#6ad3ef"></path><path d="M350.972 232.485c7.698 4.444 10.338 14.291 5.893 21.988l-38.226 66.212c-4.446 7.698-14.29 10.333-21.986 5.891-6.672-3.851-9.532-11.751-7.291-18.804l41.685-72.196c4.983-5.469 13.258-6.939 19.925-3.091z" fill="#f4af40"></path><path d="M302.755 314.986l41.684-72.196a16.124 16.124 0 0 1 11.894-5.244c-5.824-8.81-18.295-9.641-25.287-1.97l-41.685 72.196c-3.285 10.339 4.43 20.948 15.317 20.948-2.637-3.998-3.409-9.052-1.923-13.734z" fill="#db9633"></path></symbol>

    <symbol id="pisces" viewBox="0 0 512.001 512.001"><path d="M379.159 71.575l-23.096-13.448C209.788-15.598 35.113 90.665 35.113 255.989c0 122.293 99.137 221.434 221.431 221.434s221.432-99.14 221.432-221.433c.001-76.95-39.247-144.728-98.817-184.415z" fill="#b2d8e3"></path><path d="M287.091 36.421C160.057 18.596 35.113 116.166 35.113 255.989c0 122.293 99.137 221.434 221.431 221.434 21.62 0 42.511-3.112 62.264-8.89a219.082 219.082 0 0 1-40.039 3.672c-120.333 0-217.883-97.547-217.883-217.879.002-127.447 107.21-222.605 226.205-217.905z" fill="#79b5bf"></path><path d="M255.993.005C114.612.005 0 114.62 0 256.001c0 141.383 114.612 255.994 255.993 255.994 140.989 0 255.995-114.229 255.995-255.995C511.988 114.62 397.375.005 255.993.005zm0 473.877c-120.332 0-217.878-97.547-217.878-217.881 0-120.332 97.547-217.881 217.878-217.881 119.717 0 217.883 96.963 217.883 217.881.001 120.334-97.548 217.881-217.883 217.881z" fill="#e0af60"></path><path d="M369.837 189.235c-86.06 0-52.872 170.777-99.737 189.525-28.677 11.457-53.678-8.146-70.623-33.97a4.635 4.635 0 0 0-8.382 1.456c-5.066 21.034-18.319 36.172-28.545 45.165-3.398 2.99-.903 8.624 3.613 8.085 22.001-2.628 46.116.372 58.607 4.06 127.208 33.633 187.408-53.205 191.962-130.585 2.602-44.293-14.004-83.736-46.895-83.736z" fill="#e2ca3b"></path><path d="M276.628 385.675c34.035 0 39.404-31.269 48.049-85.875 7.159-45.228 14.983-95.047 46.516-110.535-51.771-1.805-61.6 60.487-69.867 110.551-9.141 55.335-14.735 78.142-42.351 81.912 5.465 2.457 11.365 3.947 17.653 3.947z" fill="#ccae2f"></path><path d="M369.837 189.235c-56.523 0-61.741 74.071-71.76 129.678a257.217 257.217 0 0 0 64.541 64.322c33.715-26.696 51.727-69.728 54.113-110.264 2.603-44.293-14.003-83.736-46.894-83.736z" fill="#eace49"></path><path d="M298.078 318.914a257.976 257.976 0 0 0 18.733 23.733c12.414-50.949 12.326-132.725 54.383-153.381-57.579-2.01-63.249 74.834-73.116 129.648z" fill="#d8bd36"></path><path d="M345.768 113.781c-47.041 5.622-66.411-11.557-112.22-11.557-159.407 0-169.894 222.843-91.398 222.843 51.164 0 60.637-60.235 69.021-111.017 5.557-33.592 4.929-29.117 13.26-57.679 4.628-11.14 10.402-17.965 17.651-20.864 5.529-2.212 11.124-3.334 16.631-3.334 25.245 0 44.273 23.249 53.37 37.107a5.158 5.158 0 0 0 5.188 2.247 5.14 5.14 0 0 0 4.125-3.868c5.036-20.899 18.216-35.952 28.387-44.897 3.766-3.314 1.018-9.565-4.015-8.981z" fill="#ead154"></path><path d="M245.06 102.612C68.368 91.083 59.179 345.325 154.645 323.727c-65.237-17.626-51.579-211.436 90.415-221.115z" fill="#d8bd36"></path><path d="M345.768 113.781c-38.681 4.622-57.362-5.41-84.25-9.401a254.01 254.01 0 0 0-6.068 27.939c23.681-1.913 43.599 17.107 56.633 36.963a5.158 5.158 0 0 0 5.188 2.247 5.14 5.14 0 0 0 4.125-3.868c5.036-20.899 18.216-35.952 28.387-44.897a5.156 5.156 0 0 0 1.3-5.971 5.167 5.167 0 0 0-5.315-3.012z" fill="#eace49"></path><path d="M369.837 188.721c-39.236 0-53.908 35.158-62.54 75.32 0 0 69.944 48.425 109.826 10.722 3.229-46.079-14.051-86.042-47.286-86.042z" fill="#c6b63e"></path><path d="M307.755 264.355c1.924 1.288 9.79 6.404 20.842 11.656 6.012-33.956 15.337-73.359 42.596-86.747-40.119-1.399-55.071 36.003-63.438 75.091z" fill="#ad9a2b"></path><path d="M142.151 325.068c39.239 0 53.907-35.158 62.544-75.321 0 0-69.945-48.425-109.829-10.72-3.228 46.077 14.051 86.041 47.285 86.041z" fill="#c6b63e"></path><path d="M148.81 324.701a93.61 93.61 0 0 0 3.107-.439c.952-.162 2.286-.44 2.704-.541-30.3-8.205-42.223-53.517-35.718-97.493-8.602 1.976-16.814 5.969-24.039 12.8-2.334 33.568 6.923 78.665 39.584 85.282.697.14 1.595.294 2.371.397.869.117 1.641.204 2.517.262 1.558.105 3.321.161 6.225.004.374-.023 2.668-.207 3.249-.272z" fill="#ad9a2b"></path><g fill="#d8d8d8"><path d="M378.426 239.203c0 7.394-5.996 13.392-13.394 13.392-7.397 0-13.395-5.998-13.395-13.392 0-7.4 5.998-13.396 13.395-13.396 7.398 0 13.394 5.996 13.394 13.396z"></path><circle cx="146.958" cy="274.583" r="13.393"></circle></g><g fill="#c6b63e"><path d="M346.492 343.488c-13.835 0-27.546-11.345-28.221-25.287-.602-12.424 8.614-22.167 9.668-23.236a7.722 7.722 0 0 1 10.923-.088 7.728 7.728 0 0 1 .117 10.9c-1.557 1.624-5.534 6.886-5.271 11.731.138 2.551 1.525 4.892 4.237 7.163 10.309 8.633 23.143-.697 19.511-13.095a7.724 7.724 0 0 1 5.242-9.586c4.095-1.196 8.387 1.148 9.585 5.239 5.771 19.686-8.684 36.259-25.791 36.259zM178.545 221.132c-6.803 0-10.305-8.226-5.534-13.12 1.562-1.628 5.532-6.888 5.27-11.731-.339-6.191-10.412-14.241-18.978-8.635-3.667 2.4-6.848 7.485-4.772 14.565a7.725 7.725 0 0 1-5.241 9.588 7.724 7.724 0 0 1-9.587-5.242c-3.666-12.514.704-25.013 11.139-31.839 25.174-16.476 60.356 16.454 33.211 44.107a7.711 7.711 0 0 1-5.508 2.307z"></path></g></symbol>
</svg>